<?xml version="1.0" encoding="iso-8859-1"?>
<!DOCTYPE svg PUBLIC "-//W3C//DTD SVG 1.1//EN" "http://www.w3.org/Graphics/SVG/1.1/DTD/svg11.dtd">
<svg xmlns="http://www.w3.org/2000/svg" xmlns:xlink="http://www.w3.org/1999/xlink" version="1.1" id="Capa_1" x="0px" y="0px" viewBox="0 0 60 60" style="enable-background:new 0 0 60 60;" xml:space="preserve" width="512px" height="512px">
<path d="M58,2h1c0.553,0,1-0.447,1-1s-0.447-1-1-1h-1H2H1C0.447,0,0,0.447,0,1s0.447,1,1,1h1v52H0v6h60v-6h-2V2z M4,2h52v52h-1V35  v-2v-2v-2V3H36.989H33h-6h-3.989H5v26v2v2v2v19H4V2z M30.281,52H31c0.553,0,1-0.447,1-1s-0.447-1-1-1h-1.219H29h-1v-1h10v1h-1  h-0.781H35c-0.553,0-1,0.447-1,1s0.447,1,1,1h0.719l-0.5,2h-4.438L30.281,52z M33,44.284c-0.453-0.373-1.013-0.612-1.614-0.671  c-0.028-0.291-0.1-0.58-0.214-0.856c-0.113-0.274-0.268-0.528-0.456-0.755c0.188-0.228,0.342-0.482,0.456-0.759  c0.114-0.275,0.185-0.563,0.212-0.856c0.598-0.058,1.155-0.296,1.61-0.676c0.454,0.376,1.017,0.617,1.62,0.676  c0.028,0.292,0.1,0.58,0.214,0.856c0.113,0.274,0.268,0.528,0.456,0.756c-0.188,0.227-0.342,0.481-0.456,0.758  c-0.114,0.275-0.185,0.563-0.212,0.856C34.015,43.671,33.453,43.91,33,44.284z M37.781,52H40v-5h-6v-0.798  c0.155-0.36,0.506-0.602,0.902-0.602c0.146,0,0.288,0.032,0.498,0.132c0.382,0.183,0.818,0.064,1.118-0.233  c0.299-0.3,0.359-0.792,0.178-1.174c-0.122-0.255-0.129-0.54-0.021-0.802s0.315-0.458,0.658-0.58  c0.399-0.142,0.627-0.532,0.627-0.956c0.001-0.423-0.305-0.814-0.703-0.956c-0.267-0.095-0.474-0.291-0.582-0.553  s-0.102-0.547,0.056-0.878c0.182-0.382,0.065-0.819-0.233-1.118c-0.301-0.3-0.794-0.358-1.174-0.178  c-0.518,0.25-1.156-0.004-1.382-0.638c-0.142-0.399-0.532-0.627-0.956-0.627c-0.423,0-0.814,0.305-0.956,0.703  c-0.14,0.394-0.515,0.658-0.933,0.658c-0.146,0-0.288-0.032-0.498-0.132c-0.384-0.185-0.819-0.064-1.118,0.234  s-0.359,0.791-0.178,1.173c0.122,0.255,0.129,0.54,0.021,0.802s-0.315,0.458-0.658,0.58c-0.399,0.142-0.627,0.532-0.627,0.956  c-0.001,0.423,0.305,0.814,0.703,0.956c0.267,0.095,0.474,0.291,0.582,0.553s0.102,0.547-0.056,0.878  c-0.182,0.382-0.065,0.819,0.234,1.118c0.3,0.3,0.792,0.358,1.173,0.178c0.5-0.241,1.112,0.019,1.324,0.512V47h-6v5h2.219l0.5,2  H16.644l-4.091-9H14c0.553,0,1-0.447,1-1s-0.447-1-1-1h-0.792c1.658-2.103,3.134-4.783,4.408-8h24.768  c1.274,3.217,2.75,5.897,4.408,8H46c-0.553,0-1,0.447-1,1s0.447,1,1,1h1.447l-4.091,9h-6.075L37.781,52z M7,31h12.031H29V5h2v26  h9.969H53v2H41.612H18.388H7V31z M27,5v24h-7.396c2.705-9.933,3.261-20.735,3.37-24H27z M37.026,5c0.109,3.265,0.665,14.067,3.37,24  H33V5H37.026z" fill="#FFFFFF"/>
<g>
</g>
<g>
</g>
<g>
</g>
<g>
</g>
<g>
</g>
<g>
</g>
<g>
</g>
<g>
</g>
<g>
</g>
<g>
</g>
<g>
</g>
<g>
</g>
<g>
</g>
<g>
</g>
<g>
</g>
</svg>
